<?xml version="1.0" encoding="UTF-8"?>
<svg version="1.1" viewBox="0 0 1600 1600" width="1280" height="1280" xmlns="http://www.w3.org/2000/svg">
<path transform="translate(889,44)" d="m0 0h56l33 2 29 4 26 5 28 7 37 12 31 13 17 8 22 12 21 13 16 11 16 12 10 8 11 9 13 12 8 7 14 14 7 8 8 8 9 11 13 16 12 16 14 20 14 22 16 28 12 23 11 28 7 25 5 27 2 15v44l-4 34-4 31v23l4 30 6 22 8 20 11 21 13 19 13 16 18 20 9 9 7 8 10 10 9 11 8 11 5 12v18l-7 14-8 10-11 11-15 10-21 10-40 15-13 7-9 8-6 11-2 9v14l3 13 10 24v7l-4 6-5 4-12 6-27 9-2 1 2 5 12 11 4 5 2 4v8l-5 10-12 13-9 14-5 14-2 10v15l5 27 9 36 1 6v29l-5 16-6 12-10 13-10 9-16 9-18 8-16 5-14 3-22 3h-43l-36-4-35-6-35-7-4 1-6 4-14 12-13 14-10 14-9 17-7 21-3 20 1 19 4 20 6 18 9 19 10 16 14 19 12 14 7 8-1 3-21 14-21 12-22 10-28 10-28 7-26 4-24 2h-37l-23-2-21-3-28-6-28-8-30-11-32-14-22-11-23-13-26-16-14-9-20-14-20-15-27-18-15-9-21-12-31-15-23-9-21-7-20-5-26-4-11-1h-40l-27 3-44 8-25 5h-6l-7-6-2-4v-9l5-12 8-12 8-10 11-12 12-13 8-7 15-14 8-7 11-9 13-11 14-11 15-12 20-15 18-14 38-28 17-12 18-13 17-12 20-14 17-12 16-11 23-16 19-13 20-14 15-10 17-12 14-11 11-10 8-7 19-19 9-11 10-13 10-15 8-14 9-21 5-16 3-14 1-12v-16l-2-14-6-18-8-15-8-11-16-16-17-12-12-7-20-9-24-8-11-3h-6l-26 8-21 6-29 6-11 1h-14l-10-2-10-3-14-7-10-8-9-9-9-14-5-12-3-11-1-10v-13l2-13 4-16 5-12 6-10 9-12 9-9 18-13 16-9 21-8 14-4 12-2 1-1 23-2 7-1 9-1 11-6 12-9 11-9 17-16 7-8 9-10 8-11 10-15 9-16 8-20 4-17v-21l-1-11-4-16-4-10-6-8-7-4-4-1h-11l-12 3-15 6-16 8-25 12-16 6-23 6-16 3-11 1h-30l-12-2-13-4-12-6-10-9-8-9-6-12-3-12-1-14-1-4 1-2 2-14 6-20 11-23 9-14 14-19 8-9 14-16h2l1-3 8-7 10-9 14-11 17-13 16-11 19-12 21-12 23-12 23-11 32-13 41-14 28-8 37-8 36-6 26-3zm-369 221-11 4-9 6-6 7-5 10-1 5v18l4 11 6 8 8 7 11 5 7 1h12l11-4 9-6 5-5 5-7 4-13v-12l-3-10-6-10-8-8-10-5-6-2zm31 355-10 3-11 7-8 10-4 10-1 15 2 10 5 10 7 8 11 6 4 2 15 1 11-2 11-6 8-8 5-9 3-10v-13l-3-9-5-9-5-6-11-7-9-3z" fill="#135BC9"/>
<path transform="translate(889,44)" d="m0 0h56l33 2 29 4 26 5 28 7 37 12 31 13 17 8 22 12 21 13 16 11 16 12 10 8 11 9 3 3v3h2l5 5 5 4 15 15 1 5 7 8 17 17 5 6 6 11 5 5 8 10-1 3-8-6-5-2-3-4v-2l-4-1-8-4-9-2-9-3-29-9-23-6-15-3-22-3-14-1-18-3-8-2-11-1-19-5-17-5-7-2-11-4-5-2-6-1h-3l-4 1 3 4-2 4-5 1-13-4-12-7-15-10-10-7-11-8-16-12-24-16-14-8-20-8-20-4-6-1h-18l-22 4-20 6-28 11-19 9-14 8-25 16-15 10-20 13-29 17-19 10-21 7-24 4-21 2h-18l-31-3-26-4-22-5-4-2-3 2 2-4 11-12h2l1-3 8-7 10-9 14-11 17-13 16-11 19-12 21-12 23-12 23-11 32-13 41-14 28-8 37-8 36-6 26-3z" fill="#4BB9F5"/>
<path transform="translate(379,354)" d="m0 0h15l11 4 8 6 6 7 5 10 2 14 120 30 23 6h3l6-10 7-8 11-7 9-3 13-2 17 4 11 6 10 10 7 14 2 6v19l-4 12-10 14-14 9-14 4h-13l-8-2-9-4-8-6-8-8-13 5-28 14-23 11-35 17-25 12-21 10-26 13v20l-4 10-7 9-9 6-12 4h-3l-1 17-5 47-5 54-1 11 11 6 8 7 6 10 3 11v9l16 4 49 15 50 15 66 20 14 4 7-11 9-10 14-9 8-3 16-2 15 2 11 4 11 7 8 8 8 12 5 15v21l-4 13-6 11-10 11-11 7-13 5-11 2-17-2-16-6-9-6v3l2 2h-8l-14 12-13 12-10 9-8 7-11 10-8 7-11 10-8 7-12 11-11 9-8 8-8 7-10 8 1 5 3 9v17l-4 10-8 10-9 6-10 3h-14l-10-3-11-8-7-10-3-8-1-11 3-12 4-8 7-8 7-5-2-11-11-39-19-68-17-61-6-21v-3h-13l-10-4-7-5v-2l-3-1-6-10-3-7v-4l-3 1-67 2-2 5-5 5-4 3-7 2h-8l-8-3-5-4-4-6-2-6v-8l4-10 8-7 5-2 8-1 10 3 7 6 5 9 67-2 8-16 7-7 11-6 11-1v-16l6-61 5-53-9-4-10-9-5-8-3-9-46 2-29 1h-15l-2 5-7 7-9 3h-9l-10-5-6-9-2-6v-7l3-8 4-6 9-5 10-1 9 3 8 7 4 8 26-1 45-1h17l1-7 5-10 10-10 11-5 8-1 1-14 5-47 4-40v-2l-10-5-8-7-6-10-3-10-1-7 3-13 6-10 7-7 12-6zm43 54-8 11-8 6-10 4-7 3-3 25-5 49-2 20v8l11 6 7 6 1 2 6-1 16-8 35-17 33-16 26-13 52-25 4-2-1-20-8-3-138-35zm-40 386-6 9-9 7-2 1 2 12 11 39 18 65 15 54 9 32 6 2 14 3 7 4 4-1 20-18 8-7 12-11 8-7 12-11 8-7 10-9 8-7 12-11 8-7 20-18 11-9-1-4-6-13-3-16v-12l-9-4-93-28-76-23z" fill="#145CC9"/>
<path transform="translate(847,1222)" d="m0 0h51l26 2 39 5 33 6 69 15 10 3 1 2h-2v2h-2l-1 3h-2v2l-4 4h-2l-3 6h-2l-2 4-8 10h-2l-1 4-7 2v-3l-14-3-52-8-28-3-28-2-40 2-22 3-26 6-20 6-23 10-18 10-16 11-14 11-12 11-13 12-7 8-14 17-9 13-12 18-8 13-9 16-8 16-4 4-8 2-4-1-20-14-10-8 2-8 12-27 10-20 12-21 14-21 13-18 12-14 16-17 15-14 13-10 18-12 22-12 14-6 25-8 27-6z" fill="#080091"/>
<path transform="translate(593,551)" d="m0 0h14l44 4 18 3 28 7 27 10 16 7 18 10 22 14 14 11 11 10 8 7 14 15 11 12 9 11 9 12 10 14 14 22 12 22 12 26 10 26 10 31 9 34 13 57 10 44 10 34 10 27 9 20 11 20 9 14-1 2-8-9-13-19-14-24-10-21-9-26-12-41-14-59-7-26-9-29-10-27-10-22-8-16-14-25-13-19-11-15-14-17-11-12-9-10-5-4v-2l-4-2-7-7-14-11-14-10-18-11-21-11-18-7-17-5-1-1-9-2-4-1h-13l5 5-1 2h-2v2l-5 5-5 9-1 9-4 11-1 7-1 10-1 2 6-2 3 5v2h-2l-2 6-2 2h-8l-8 6-1-1-1 2-7 2-7 13-4 2-1-3v-23l-5-19-8-13-6-7-10-7-13-5-4-1h-17l-11 3-12 6-10 9-8 13-6 17-1 11 1 17h-3l-4-6-3-7-6-34v-4h-7v-2l-3-1-1-4 1-13 3-12v-3l10-9 17-12 16-8 18-7 14-4 12-2 1-1 23-2z" fill="#4BB9F5"/>
<path transform="translate(807,55)" d="m0 0h3l1 3 12 3 3 1h19l8 3h12l9 1 3 2-1 4-2 3-9 1-5 7-8 4-9 5-2 3-8 3h-3v2l-24 11-15 8-22 13-15 10-17 11-28 18-18 11-27 12-18 5-17 3-33 2-21-1-36-4-16-3-2-1v-2l-3-1 14-13 14-11 17-13 16-11 19-12 21-12 23-12 23-11 32-13 41-14 28-8 19-4 4 1v3l13-2 1-4z" fill="#8ACBF5"/>
<path transform="translate(881,86)" d="m0 0h22l14 2 16 5 12 5 15 8 22 15 32 24 10 7 14 9 20 12 32 15 3 2-3 1-11-5-4-1-6-1h-3l-4 1 3 4-2 4-5 1-13-4-12-7-15-10-10-7-11-8-16-12-24-16-14-8-20-8-20-4-6-1h-18l-22 4-20 6-28 11-19 9-14 8-25 16-15 10-20 13-29 17-19 10-21 7-24 4-21 2h-18l-31-3-26-4-22-5-4-2-3 2 2-4 11-12h2l1-3 3-2h4v2l8 1 10 2 36 4 23 1 31-2 25-5 15-5 22-10 20-12 12-8 23-15 14-9 19-12 14-8 19-10 18-8 25-8 14-3z" fill="#5783D0"/>
<path transform="translate(1040,1120)" d="m0 0 7 6 12 12 8 7 16 13 18 13 18 12 25 15 23 12 19 10 22 10 20 10-1 4 4 2 1 3h-3l-1-1-1 4-5 1-19-2-40-7-33-8-30-9-22-8-20-9-16-8-14-8-14-9-18-13-7-6-11-9-22-22-4-7 3 1v2h2l3 4v2l3 1 5 6 8 7 2 4 6 3v2l9 3 11 6-2-7 7 1 1-3 6-2 1-5 4-12 7-5h2v-5l-2-1v-5l3-1 7 4 10 6h2l-9-8z" fill="#0E74EF"/>
<path transform="translate(277,429)" d="m0 0h12l9 3 9 6 8 9 4 10 1 12-2 8-5 10-6 7-8 5-10 3h-13l-11-4-8-6-7-9-3-8-1-11 2-10 6-12 8-7 10-5z" fill="#145CC9"/>
<path transform="translate(336,231)" d="m0 0h8l11 4 7 6 5 9 1 4v12l-3 8-8 9-8 4-5 1h-9l-9-3-7-5-6-10-2-6v-8l4-11 8-9 9-4z" fill="#145CC9"/>
<path transform="translate(290,933)" d="m0 0h8l10 3 10 9 4 9 1 9-2 9-7 10-9 6-4 1h-14l-9-4-7-7-5-11v-11l4-10 6-7 9-5z" fill="#145BC9"/>
<path transform="translate(99,658)" d="m0 0h14l10 5 7 7 4 9v14l-5 10-9 8-9 3h-11l-10-4-7-7-4-8-1-4v-10l3-9 9-10z" fill="#145BC9"/>
<path transform="translate(1060,378)" d="m0 0 5 2 10 6 16 12 12 11 8 7 15 16 9 11 8 10 12 17 10 15 6 11 10 18 13 27 13 31 14 39 13 42 12 46 11 44 11 33 9 20 7 13 11 16 12 13 11 8 15 8 13 5 1 2-8-1-13-5-13-7-13-11-11-12-10-15-11-21-3-7-4-10-3-11-3-7-3-13-3-9-2-8-2-10-2-5-2-9-3-14-3-9-4-15-13-42-12-35-6-17v-3h-2l-3-8-5-13-3-5-4-10-14-28-12-19-10-16-14-19-11-13-8-8-7-8-7-7-8-7-16-13-16-12z" fill="#70C0F2"/>
<path transform="translate(1182,722)" d="m0 0 3 1 9 30 13 40 9 24v3h-2v2h-2l-4-4-5-13-4-10-8-14v-2h-2l-2-6-3-6-2-13 3-5 1-1v-6l-3-8-2-4-1-5z" fill="#080091"/>
<path transform="translate(204,336)" d="m0 0h12l6 4 4 5 1 9-4 8-8 5h-9l-7-4-4-7v-10l4-7z" fill="#155DC9"/>
<path transform="translate(133,484)" d="m0 0 9 2 5 5 3 5v9l-4 7-7 4h-10l-6-4-4-5-1-9 3-7 6-5z" fill="#145CC9"/>
<path transform="translate(141,877)" d="m0 0 8 1 6 4 4 6v10l-4 7-5 3-9 1-8-3-5-8v-9l4-7 6-4z" fill="#145CC9"/>
<path transform="translate(575,611)" d="m0 0 9 3 7 3 8 7 6 9 4 16-1 2h-2v-2l-5-2-3 3-6-11-6-8-11-7-5-2v-2h3v-2l4-2v-2h-2z" fill="#1074ED"/>
<path transform="translate(522,246)" d="m0 0h9l11 1 13 5 9 6 6 5 7 10 4 9v4h-2l-6-11-8-10-13-8-12-4-7-1h-10l-10 2-12 5-8 6-8 9-7 11-1-3 7-14 8-9 11-7 12-5z" fill="#4EACEC"/>
<path transform="translate(1161,742)" d="m0 0 3 1 6 14 2 1 12 30 11 24 9 16 2 6 4 10 1 4h2l6 11 3 4 4 4-1 3-5-5-7-10-6-9-6-11-12-23-13-29-9-22-6-16z" fill="#080091"/>
<path transform="translate(733,153)" d="m0 0 2 1-12 8-14 9-18 11-27 12-18 5-17 3-33 2-21-1-36-4-16-3-2-1v-2l-3-1 3-1 9 3 35 5 12 1h36l33-4 15-4 13-5 19-10 16-9 11-7z" fill="#4BBAF5"/>
<path transform="translate(1268,787)" d="m0 0 4 4 1-3 11 21 11 16 12 13 11 8 15 8 13 5 1 2-8-1-13-5-13-7-13-11-11-12-10-15-11-21z" fill="#4DAFEE"/>
<path transform="translate(936,322)" d="m0 0 9 1 21 8 19 9 14 8 16 12 5 4 1 2h-3v-2l-4 1-8-6-7-6-8-4-13-5-13-8-14-6v-2l-9-1-6-3z" fill="#080091"/>
<path transform="translate(1246,718)" d="m0 0 5 2 9 33 8 23 4 9 1 9-3-4-6-10-5-16-4-10-3-13-3-9-2-8z" fill="#6CBDF1"/>
<path transform="translate(1060,378)" d="m0 0 5 2 10 6 16 12 12 11 8 7 7 8-4 2-7-8-7-7-8-7-16-13-16-12z" fill="#4BB5F3"/>
<path transform="translate(1031,377)" d="m0 0 5 2 8 7v2l3 1 9 11 6 7 1 3h-4l-25-25-4-7z" fill="#080091"/>
<path transform="translate(530,627)" d="m0 0h3l-1 3-5 5-5 7-3 8-1 15v5l-2-1-4-7-2-4 2-5h3l-1-7 2-4h2v-3h2l4-8z" fill="#1879E9"/>
<path transform="translate(574,605)" d="m0 0 8 1 11 7 6 6v2h2l4 7-1 2-5-4-5-6-10-7-7-3-3-3z" fill="#7CC8F5"/>
<path transform="translate(803,54)" d="m0 0h5l-1 2h-4l-1 5-5 1h-8l-4-4z" fill="#4EB8F4"/>
<path transform="translate(1312,843)" d="m0 0 5 2 14 8 15 6 1 2-8-1-13-5-5-5-7-4z" fill="#5683D0"/>
<path transform="translate(516,651)" d="m0 0h1l1 19-2-1-4-7-2-4 2-5h3z" fill="#1377ED"/>
<path transform="translate(493,262)" d="m0 0 2 1-8 8-9 14-1-3 7-14 6-3z" fill="#548FD8"/>
<path transform="translate(1245,164)" d="m0 0 4 2 17 16 8 8-2 2-7-8-9-8-7-6-2-4h-2z" fill="#2E89DE"/>
<path transform="translate(1264,774)" d="m0 0h2v2h2l4 9 1 9-3-4-5-8z" fill="#73C2F3"/>
<path transform="translate(1246,718)" d="m0 0 5 2 2 8v4h-2l1 8-2-4-3-12z" fill="#66B6EE"/>
<path transform="translate(547,608)" d="m0 0h6l-3 3-16 6-3-1 7-5z" fill="#0E75F0"/>
<path transform="translate(415,1086)" d="m0 0 7 1 9 2v1h-18l-3-1v-2z" fill="#0B0B97"/>
<path transform="translate(759,324)" d="m0 0 4 1h-2v2l-8 2-12 2v-2z" fill="#080091"/>
<path transform="translate(779,59)" d="m0 0h4l1 4-2 2-5-1v-2h-5l3-2z" fill="#4EBAF5"/>
<path transform="translate(1180,710)" d="m0 0 2 2 1 6-3 2-3-3v-5z" fill="#080091"/>
<path transform="translate(1245,708)" d="m0 0h2l3 8v4l-4-2z" fill="#75C6F5"/>
<path transform="translate(1176,699)" d="m0 0h2l2 7-4 2-2-2v-6z" fill="#080091"/>
<path transform="translate(496,256)" d="m0 0 2 1-9 10-3 1 1-4z" fill="#509FE3"/>
<path transform="translate(598,667)" d="m0 0 3 4-1 4-2 1-1 4-4 2 4-10z" fill="#1E7FEA"/>
<path transform="translate(941,1113)" d="m0 0 5 5 6 7-1 3-8-10z" fill="#0E75F0"/>
<path transform="translate(1066,414)" d="m0 0 5 5 4 6-1 2-2-4-3-1-3-5z" fill="#080392"/>
<path transform="translate(1170,677)" d="m0 0h2l1 4-3 3h-2l-1-5z" fill="#080091"/>
<path transform="translate(530,627)" d="m0 0h3l-1 3-6 4-2-3z" fill="#1375E9"/>
<path transform="translate(905,315)" d="m0 0 10 1 2 2-9 1-1-3z" fill="#080091"/>
<path transform="translate(1245,164)" d="m0 0 4 2 9 8-3 2-4-5-4-3v-2h-2z" fill="#2071D3"/>
<path transform="translate(766,62)" d="m0 0h4l-1 4h-9v-2z" fill="#54BAF4"/>
<path transform="translate(1313,847)" d="m0 0 5 1 9 5-3 1-11-6z" fill="#4FA6E8"/>
</svg>
